 <svg
      width="104"
      height="18"
      viewBox="0 0 104 18"
      fill="none"
      xmlns="http://www.w3.org/2000/svg"
    >
      <path
        d="M0.702 1.176H5.785V12.952H13.904V17H0.702V1.176ZM15.8818 3.43V0.324999H20.4588V3.43H15.8818ZM15.8818 17V4.856H20.4588V17H15.8818ZM31.752 4.58C33.1627 4.58 34.2207 4.971 34.926 5.753C35.6313 6.535 35.984 7.662 35.984 9.134V17H31.407V9.686C31.407 9.16467 31.269 8.75067 30.993 8.444C30.7323 8.122 30.3567 7.961 29.866 7.961C29.2987 7.961 28.8387 8.145 28.486 8.513C28.1333 8.881 27.957 9.33333 27.957 9.87V17H23.38V4.856H27.129L27.428 6.696C27.9033 6.052 28.5243 5.53833 29.291 5.155C30.073 4.77167 30.8933 4.58 31.752 4.58ZM47.1848 4.856H52.5208L48.0358 9.755L52.6358 17H47.4378L44.8848 12.837L43.2978 14.378V17H38.7208V0.302H43.2978V9.502L47.1848 4.856Z"
        fill="#F46412"
      />
      <path
        d="M64.9176 1.176C65.715 1.176 66.4433 1.34467 67.1026 1.682C67.7773 2.004 68.3063 2.464 68.6896 3.062C69.0883 3.66 69.2876 4.327 69.2876 5.063C69.2876 7.01033 68.406 8.237 66.6426 8.743V8.835C68.6513 9.295 69.6556 10.6137 69.6556 12.791C69.6556 13.619 69.4486 14.355 69.0346 14.999C68.636 15.6277 68.084 16.1183 67.3786 16.471C66.6733 16.8237 65.899 17 65.0556 17H54.3836V1.176H64.9176ZM59.4666 7.34H62.9626C63.3 7.34 63.576 7.225 63.7906 6.995C64.0206 6.74967 64.1356 6.45067 64.1356 6.098V5.868C64.1356 5.53067 64.0206 5.247 63.7906 5.017C63.5606 4.77167 63.2846 4.649 62.9626 4.649H59.4666V7.34ZM59.4666 13.32H63.3306C63.668 13.32 63.944 13.205 64.1586 12.975C64.3886 12.7297 64.5036 12.4307 64.5036 12.078V11.848C64.5036 11.4953 64.3886 11.204 64.1586 10.974C63.944 10.7287 63.668 10.606 63.3306 10.606H59.4666V13.32ZM78.242 4.58C80.3733 4.58 82.0447 5.12433 83.256 6.213C84.4827 7.28633 85.096 8.858 85.096 10.928C85.096 12.998 84.4827 14.5773 83.256 15.666C82.0447 16.7393 80.3733 17.276 78.242 17.276C76.1107 17.276 74.4393 16.7393 73.228 15.666C72.0167 14.5927 71.411 13.0133 71.411 10.928C71.411 8.84267 72.0167 7.26333 73.228 6.19C74.4393 5.11667 76.1107 4.58 78.242 4.58ZM78.242 7.685C76.7393 7.685 75.988 8.55133 75.988 10.284V11.595C75.988 13.3123 76.7393 14.171 78.242 14.171C79.76 14.171 80.519 13.3123 80.519 11.595V10.284C80.519 8.55133 79.76 7.685 78.242 7.685ZM87.4648 17V0.324999H92.0418V17H87.4648ZM103.059 4.856V7.961H100.483V12.584C100.483 13.136 100.575 13.5423 100.759 13.803C100.943 14.0483 101.28 14.171 101.771 14.171H103.059V16.862C102.691 16.9847 102.216 17.0843 101.633 17.161C101.05 17.2377 100.544 17.276 100.115 17.276C98.7657 17.276 97.723 17.0307 96.987 16.54C96.2663 16.0493 95.906 15.2137 95.906 14.033V7.961H94.204V4.856H96.09L97.079 1.176H100.483V4.856H103.059Z"
        fill="white"
      />
    </svg>